
    <svg
      version="1.1"
      id="svg2"
      viewBox="0 0 310 310"
      xmlns="http://www.w3.org/2000/svg"
    >
      <defs id="defs6">
        <clipPath clipPathUnits="userSpaceOnUse" id="clipPath16">
          <path d="M 0,232.727 H 232.729 V 0 H 0 Z" id="path14" />
        </clipPath>
      </defs>
      <g id="g8" transform="matrix(1.3333333,0,0,-1.3333333,0,310.30267)">
        <g id="g10">
          <g id="g12" clipPath="url(#clipPath16)">
            <g id="g18" transform="translate(116.3638,232.7266)">
              <path
                d="m 0,0 c -64.267,0 -116.364,-52.098 -116.364,-116.362 0,-64.267 52.097,-116.365 116.364,-116.365 64.267,0 116.365,52.098 116.365,116.365 C 116.365,-52.098 64.268,0 0,0"
                fill="none"
                fillOpacity="0"
                fillRule="nonzero"
                stroke="none"
                id="path20"
              />
            </g>
            <g id="g22" transform="translate(141.6914,140.6455)">
              <path
                d="m 0,0 c 4.791,4.056 9.216,11.427 9.216,22.669 0,9.579 -4.792,18.795 -14.19,18.795 -7.185,0 -12.53,-7.742 -12.53,-16.401 C -17.504,16.033 -12.526,9.767 0,0"
                fill="#60a5fa"
                fillOpacity="1"
                fillRule="nonzero"
                stroke="none"
                id="path24"
              />
            </g>
            <g id="g26" transform="translate(121.9766,127.3828)">
              <path
                d="m 0,0 c -4.972,-5.344 -7.736,-13.086 -7.736,-20.271 0,-17.687 12.156,-25.984 24.505,-25.984 8.292,0 17.136,4.98 21.926,10.692 C 25.062,-21.74 15.666,-13.636 0,0"
                fill="#60a5fa"
                fillOpacity="1"
                fillRule="nonzero"
                stroke="none"
                id="path28"
              />
            </g>
            <g id="g30" transform="translate(212.8145,66.5732)">
              <path
                d="m 0,0 -1.097,-2.208 c -18.243,0 -29.299,4.234 -31.698,6.629 -2.395,2.396 -7.74,8.664 -14.557,15.294 -11.424,-14.924 -23.215,-21.923 -35.564,-21.923 -25.058,0 -38.513,18.421 -38.513,34.27 0,15.478 9.402,22.114 25.8,33.539 -7.371,7.181 -12.345,15.292 -12.345,26.165 0,16.397 15.293,30.774 33.537,30.774 18.423,0 31.322,-11.427 31.322,-26.722 0,-6.449 -2.943,-11.053 -7.926,-15.109 -3.68,-3.316 -8.84,-7.001 -14.736,-10.87 5.346,-4.608 15.847,-13.819 28.744,-25.796 3.132,4.793 6.08,9.948 9.029,15.843 3.687,8.294 2.397,10.875 -10.131,12.713 V 78.87 H 5.533 V 72.599 C -5.89,71.311 -9.76,68.915 -16.397,60.255 -21.554,53.806 -26.164,46.805 -31.877,38.694 -20.08,27.275 -8.656,13.085 0,0 m -131.226,58.966 c -2.578,-0.921 -4.422,-0.37 -5.711,0.734 -3.132,2.581 -5.342,3.874 -8.476,3.874 -3.502,0 -7.186,-2.396 -10.319,-9.584 V 19.715 c 0,-11.42 1.11,-12.159 15.293,-13.45 V 0.37 h -50.482 v 5.895 c 9.943,1.108 11.79,2.03 11.79,13.45 v 40.17 c 0,9.399 -1.476,10.136 -9.952,12.161 v 5.163 c 11.054,1.469 21.923,3.5 33.351,7.001 V 64.68 h 0.554 c 6.636,11.421 13.817,19.343 20.638,19.343 7.372,0 12.347,-5.153 12.347,-11.424 0,-6.627 -4.056,-11.789 -9.033,-13.633 m 34.775,107.187 c -64.266,0 -116.363,-52.097 -116.363,-116.362 0,-64.267 52.097,-116.364 116.363,-116.364 64.267,0 116.365,52.097 116.365,116.364 0,64.265 -52.097,116.362 -116.365,116.362"
                fill="#60a5fa"
                fillOpacity="1"
                fillRule="nonzero"
                stroke="none"
                id="path32"
              />
            </g>
          </g>
        </g>
      </g>
    </svg>